<svg width="20" height="20" viewBox="0 0 20 20" fill="none" xmlns="http://www.w3.org/2000/svg">
<path d="M10 0C4.47715 0 0 4.47715 0 10C0 15.5228 4.47715 20 10 20C15.5228 20 20 15.5228 20 10C19.9936 4.47982 15.5202 0.00642897 10 0Z" fill="#5243C2" fill-opacity="0.15"/>
<path d="M15.7722 6.83411L10.0681 14.5749C9.93203 14.7554 9.72918 14.8737 9.50509 14.9032C9.281 14.9326 9.05447 14.8708 8.8764 14.7316L4.80307 11.4749C4.44362 11.1873 4.38542 10.6627 4.67307 10.3033C4.96072 9.94383 5.48529 9.88562 5.84474 10.1733L9.2414 12.8908L14.4306 5.84827C14.6007 5.59293 14.8974 5.45176 15.2029 5.4808C15.5084 5.50985 15.7732 5.70441 15.8922 5.98725C16.0111 6.27008 15.9651 6.59543 15.7722 6.83411Z" fill="#BB6BD9"/>
</svg>
